<?xml version="1.0" encoding="utf-8"?>
<!-- Generator: Adobe Illustrator 25.2.3, SVG Export Plug-In . SVG Version: 6.00 Build 0)  -->
<svg version="1.1" id="Capa_1" xmlns="http://www.w3.org/2000/svg" xmlns:xlink="http://www.w3.org/1999/xlink" x="0px" y="0px"
	 viewBox="0 0 143.8 128.4" style="enable-background:new 0 0 143.8 128.4;" xml:space="preserve">
<style type="text/css">
	.st0{fill:#016D38;}
</style>
<g id="noun_974820_cc_alert" transform="translate(0 -5.33)">
	<g id="Grupo_2547" transform="translate(0 5.33)">
		<g id="Grupo_2546">
			<g id="Zoom_In">
				<g id="Calendar">
					<g id="Grupo_2545">
						<path id="Trazado_2592" class="st0" d="M64.6,49h14.6v34H64.6V49z"/>
						<path id="Trazado_2593" class="st0" d="M140.8,106.4L84.7,9.1C81.1,3,76.5,0,71.9,0s-9.2,3-12.8,9.1L3,106.4
							c-7,12.1-1.3,22.1,12.8,22.1H128C142.1,128.4,147.8,118.5,140.8,106.4z M133,116.6c-0.2,0.2-1.6,1.2-5,1.2H15.8
							c-3.4,0-4.8-0.9-5-1.1s-0.2-2,1.4-4.9l56.1-97.2c1.7-2.9,3.2-3.7,3.5-3.8s1.8,0.8,3.5,3.8l56.2,97.2
							C133.2,114.6,133.1,116.3,133,116.6L133,116.6z"/>
						<circle id="Elipse_39" class="st0" cx="71.9" cy="97.1" r="8"/>
						<rect id="Rectángulo_3382" x="64.6" y="49" class="st0" width="14.6" height="34"/>
					</g>
				</g>
			</g>
		</g>
	</g>
</g>
</svg>
