<svg xmlns="http://www.w3.org/2000/svg" viewBox="0 0 58.28 53.89"><defs><style>.cls-1{fill:#ffdc5d;}.cls-2{fill:#016d38;}</style></defs><g id="Capa_2" data-name="Capa 2"><g id="Capa_1-2" data-name="Capa 1"><circle class="cls-1" cx="23.29" cy="23.29" r="23.29"/><path class="cls-2" d="M58,18.77,45.76,6a1,1,0,0,0-.67-.29H26.81a3.72,3.72,0,0,0-3.72,3.71v13H15.68a2.78,2.78,0,0,0-2.77,2.78V39.07a2.78,2.78,0,0,0,2.77,2.78h7.41v8.33a3.72,3.72,0,0,0,3.72,3.71H54.57a3.71,3.71,0,0,0,3.71-3.7V19.41A.9.9,0,0,0,58,18.77ZM45.32,8.23,55.39,18.7H45.32ZM15.68,40a.93.93,0,0,1-.92-.93V25.18a.93.93,0,0,1,.92-.93h25a.93.93,0,0,1,.92.93V39.07a.93.93,0,0,1-.92.93ZM56.43,50.19A1.85,1.85,0,0,1,54.57,52H26.81A1.85,1.85,0,0,1,25,50.18V41.85H40.69a2.79,2.79,0,0,0,2.78-2.78V25.18a2.79,2.79,0,0,0-2.78-2.78H25v-13a1.85,1.85,0,0,1,1.86-1.85H43.47v12a.92.92,0,0,0,.92.93h12V50.19Z"/><path class="cls-2" d="M24,29.24a2.1,2.1,0,0,0-1.15-.78,9.23,9.23,0,0,0-1.91-.12H18.35v8H20v-3H21a9.92,9.92,0,0,0,1.67-.11,2.29,2.29,0,0,0,.83-.38,2.14,2.14,0,0,0,.67-.78,2.6,2.6,0,0,0,.27-1.23A2.44,2.44,0,0,0,24,29.24ZM22.6,31.43a1.15,1.15,0,0,1-.5.39,4.31,4.31,0,0,1-1.27.12H20V29.68h.78a6.88,6.88,0,0,1,1.15.06,1.13,1.13,0,0,1,.65.35,1.16,1.16,0,0,1,.07,1.34Z"/><path class="cls-2" d="M32.16,30.51a3.45,3.45,0,0,0-.76-1.29,2.66,2.66,0,0,0-1.2-.73,5.79,5.79,0,0,0-1.51-.15H25.75v8h3a4.62,4.62,0,0,0,1.42-.17,2.85,2.85,0,0,0,1.13-.63,3.64,3.64,0,0,0,.85-1.41,5.25,5.25,0,0,0,.24-1.69A6,6,0,0,0,32.16,30.51ZM30.6,33.78a1.79,1.79,0,0,1-.42.77,1.6,1.6,0,0,1-.65.33,4.49,4.49,0,0,1-1,.07h-1.2V29.68h.72a7.25,7.25,0,0,1,1.32.08,1.57,1.57,0,0,1,.74.37,1.88,1.88,0,0,1,.46.77,4.77,4.77,0,0,1,.16,1.42A5.17,5.17,0,0,1,30.6,33.78Z"/><polygon class="cls-2" points="39.25 29.68 39.25 28.34 33.79 28.34 33.79 36.29 35.4 36.29 35.4 32.91 38.72 32.91 38.72 31.57 35.4 31.57 35.4 29.68 39.25 29.68"/></g></g></svg>