<svg xmlns="http://www.w3.org/2000/svg" viewBox="0 0 45.37 48.15"><defs><style>.cls-1{fill:#016d38;}</style></defs><g id="Capa_2" data-name="Capa 2"><g id="Capa_1-2" data-name="Capa 1"><path class="cls-1" d="M45.12,13,32.85.28A1,1,0,0,0,32.18,0H13.9a3.71,3.71,0,0,0-3.71,3.71v13H2.78A2.78,2.78,0,0,0,0,19.44v13.9a2.78,2.78,0,0,0,2.78,2.77h7.41v8.34a3.71,3.71,0,0,0,3.71,3.7H41.66a3.71,3.71,0,0,0,3.71-3.7V13.67A.93.93,0,0,0,45.12,13ZM32.41,2.5,42.48,13H32.41ZM2.78,34.26a.93.93,0,0,1-.93-.92V19.44a.93.93,0,0,1,.93-.92h25a.93.93,0,0,1,.93.92v13.9a.93.93,0,0,1-.93.92ZM43.52,44.45a1.85,1.85,0,0,1-1.86,1.85H13.9A1.85,1.85,0,0,1,12,44.45V36.11H27.78a2.78,2.78,0,0,0,2.78-2.77V19.44a2.78,2.78,0,0,0-2.78-2.77H12v-13A1.86,1.86,0,0,1,13.9,1.85H30.56v12a.93.93,0,0,0,.92.93h12V44.45Z"/><path class="cls-1" d="M11.07,23.5a2.11,2.11,0,0,0-1.14-.78A9.37,9.37,0,0,0,8,22.6H5.44v8H7v-3h1a8.79,8.79,0,0,0,1.67-.12,2.26,2.26,0,0,0,.83-.37,2.21,2.21,0,0,0,.68-.79,2.67,2.67,0,0,0,.26-1.23A2.46,2.46,0,0,0,11.07,23.5ZM9.69,25.69a1,1,0,0,1-.5.39,4.16,4.16,0,0,1-1.27.13H7V24h.78A9.13,9.13,0,0,1,9,24a1.11,1.11,0,0,1,.64.36,1,1,0,0,1,.26.71A1,1,0,0,1,9.69,25.69Z"/><path class="cls-1" d="M19.25,24.78a3.32,3.32,0,0,0-.76-1.29,2.57,2.57,0,0,0-1.2-.73,5.28,5.28,0,0,0-1.51-.16H12.84v8h3a5,5,0,0,0,1.42-.17,2.75,2.75,0,0,0,1.13-.64,3.42,3.42,0,0,0,.85-1.4,5.3,5.3,0,0,0,.24-1.69A5.69,5.69,0,0,0,19.25,24.78ZM17.69,28a1.67,1.67,0,0,1-.42.77,1.39,1.39,0,0,1-.65.33,4.34,4.34,0,0,1-1,.08h-1.2V24h.72a6.35,6.35,0,0,1,1.32.08,1.48,1.48,0,0,1,.74.37,1.76,1.76,0,0,1,.46.77,4.73,4.73,0,0,1,.16,1.42A5.09,5.09,0,0,1,17.69,28Z"/><polygon class="cls-1" points="26.34 23.95 26.34 22.6 20.89 22.6 20.89 30.56 22.49 30.56 22.49 27.18 25.81 27.18 25.81 25.83 22.49 25.83 22.49 23.95 26.34 23.95"/></g></g></svg>