<?xml version="1.0" encoding="utf-8"?>
<!-- Generator: Adobe Illustrator 16.0.0, SVG Export Plug-In . SVG Version: 6.00 Build 0)  -->
<!DOCTYPE svg PUBLIC "-//W3C//DTD SVG 1.1//EN" "http://www.w3.org/Graphics/SVG/1.1/DTD/svg11.dtd">
<svg version="1.1" id="Capa_1" xmlns="http://www.w3.org/2000/svg" xmlns:xlink="http://www.w3.org/1999/xlink" x="0px" y="0px"
	 width="18.834px" height="18.833px" viewBox="0 0 18.834 18.833" enable-background="new 0 0 18.834 18.833" xml:space="preserve">
<g id="Grupo_55" transform="translate(-264 -52.604)">
	<g id="login" transform="translate(264 52.604)">
		<g id="Grupo_52" transform="translate(0)">
			<g id="Grupo_51" transform="translate(0)">
				<path id="Trazado_304" fill="#016D38" d="M4.837,17.362h-2.6c-0.229,0.002-0.446-0.102-0.589-0.279
					c-0.146-0.181-0.204-0.418-0.156-0.645c0.78-3.677,3.979-6.339,7.737-6.438c0.062,0,0.125,0,0.187,0s0.126,0,0.189,0
					c0.908,0.02,1.807,0.192,2.657,0.512c0.386,0.127,0.802-0.082,0.93-0.468c0.121-0.364-0.059-0.76-0.413-0.91
					c-0.122-0.046-0.245-0.089-0.368-0.129c2.211-1.653,2.664-4.787,1.01-6.999c-1.653-2.211-4.787-2.664-6.999-1.01
					C4.211,2.65,3.759,5.784,5.413,7.996c0.287,0.383,0.627,0.724,1.01,1.01c-3.246,1.069-5.676,3.787-6.375,7.132
					c-0.257,1.207,0.514,2.394,1.721,2.651c0.152,0.031,0.308,0.049,0.464,0.049h2.6c0.406,0.015,0.748-0.303,0.763-0.709
					c0.015-0.406-0.302-0.748-0.708-0.762c-0.018-0.002-0.036-0.002-0.054,0L4.837,17.362z M5.886,5c0-1.95,1.581-3.531,3.531-3.531
					c1.95,0,3.531,1.581,3.531,3.531c0,1.885-1.48,3.437-3.362,3.527H9.414H9.242C7.363,8.431,5.888,6.881,5.886,5z"/>
				<path id="Trazado_305" fill="#016D38" d="M18.271,12.676c-0.322-0.711-1.03-1.166-1.81-1.164h-2.3
					c-0.813-0.01-1.546,0.486-1.84,1.244c-0.039,0.101-0.086,0.228-0.135,0.375H7.371c-0.199,0-0.39,0.081-0.528,0.224l-1.264,1.3
					c-0.279,0.286-0.279,0.742,0,1.028l1.287,1.31c0.138,0.141,0.327,0.221,0.525,0.221h2.391c0.406,0.015,0.748-0.303,0.762-0.709
					c0.015-0.406-0.302-0.748-0.708-0.762c-0.018-0.002-0.036-0.002-0.054,0H7.7l-0.568-0.578l0.547-0.563h5.057
					c0.339,0,0.634-0.232,0.715-0.561c0.064-0.258,0.145-0.512,0.242-0.758c0.077-0.189,0.265-0.311,0.469-0.301h2.3
					c0.2-0.005,0.384,0.109,0.467,0.292c0.271,0.589,0.419,1.228,0.435,1.875c-0.014,0.659-0.161,1.308-0.432,1.909
					c-0.08,0.184-0.262,0.301-0.462,0.3h-2.323c-0.209-0.005-0.395-0.132-0.474-0.325c-0.095-0.237-0.171-0.48-0.228-0.729
					c-0.082-0.398-0.472-0.654-0.87-0.572s-0.654,0.473-0.572,0.87c0.003,0.015,0.006,0.029,0.011,0.044
					c0.075,0.322,0.175,0.64,0.3,0.947c0.304,0.745,1.028,1.233,1.833,1.236h2.324c0.785,0,1.495-0.466,1.809-1.186
					c0.352-0.787,0.54-1.638,0.554-2.5C18.817,14.292,18.626,13.452,18.271,12.676z"/>
				<ellipse id="Elipse_19" fill="#016D38" cx="16.051" cy="15.088" rx="0.642" ry="0.963"/>
			</g>
		</g>
	</g>
</g>
</svg>
