<?xml version="1.0" encoding="utf-8"?>
<!-- Generator: Adobe Illustrator 16.0.0, SVG Export Plug-In . SVG Version: 6.00 Build 0)  -->
<!DOCTYPE svg PUBLIC "-//W3C//DTD SVG 1.1//EN" "http://www.w3.org/Graphics/SVG/1.1/DTD/svg11.dtd">
<svg version="1.1" id="Capa_1" xmlns="http://www.w3.org/2000/svg" xmlns:xlink="http://www.w3.org/1999/xlink" x="0px" y="0px"
	 width="28.6px" height="17.875px" viewBox="0 0 28.6 17.875" enable-background="new 0 0 28.6 17.875" xml:space="preserve">
<g id="Grupo_63" transform="translate(-342 -47.125)">
	<g id="Capa_2" transform="translate(342 47.125)">
		<g id="Capa_1_1_" transform="translate(0 0)">
			<path id="Trazado_316" fill="#686868" d="M26.812,7.15H8.191c0.575,1.123,0.575,2.453,0,3.575h18.621
				c0.987,0,1.788-0.8,1.788-1.787S27.799,7.15,26.812,7.15L26.812,7.15z"/>
			<path id="Trazado_317" fill="#686868" d="M26.812,3.575H1.787C0.806,3.58,0.005,2.789,0,1.808c0-0.007,0-0.014,0-0.021
				C-0.006,0.806,0.785,0.005,1.767,0c0.007,0,0.014,0,0.021,0h25.024c0.981-0.006,1.782,0.784,1.788,1.766c0,0.007,0,0.014,0,0.021
				c0.006,0.981-0.785,1.781-1.767,1.787C26.826,3.574,26.82,3.574,26.812,3.575L26.812,3.575z"/>
			<path id="Trazado_318" fill="#686868" d="M1.787,14.3h25.024c0.987,0,1.788,0.8,1.788,1.787s-0.801,1.788-1.788,1.788H1.787
				c-0.987,0-1.788-0.801-1.788-1.788S0.8,14.3,1.787,14.3z"/>
			<path id="Trazado_319" fill="#686868" d="M0.9,5.92c0.163,0,0.323,0.044,0.463,0.126l3.649,2.1
				c0.436,0.257,0.581,0.817,0.324,1.253c-0.079,0.134-0.19,0.245-0.324,0.324l-3.649,2.101c-0.14,0.081-0.3,0.125-0.463,0.126
				c-0.497,0-0.899-0.403-0.899-0.9c0-0.005,0-0.01,0-0.015V6.835C-0.009,6.338,0.388,5.928,0.885,5.92
				C0.89,5.92,0.895,5.92,0.9,5.92"/>
		</g>
	</g>
</g>
</svg>
