<svg xmlns="http://www.w3.org/2000/svg" viewBox="0 0 61.97 53.89"><defs><style>.cls-1{fill:#ffdc5d;}.cls-2{fill:#016d38;}</style></defs><g id="Capa_2" data-name="Capa 2"><g id="Capa_1-2" data-name="Capa 1"><circle class="cls-1" cx="23.29" cy="23.29" r="23.29"/><path class="cls-2" d="M51.13,53.89H22.91a3,3,0,0,1-2.94-3V14a3,3,0,0,1,2.94-2.95h2.81a1,1,0,0,1,0,2H22.91A.94.94,0,0,0,22,14V50.94a.94.94,0,0,0,.94.94H51.13a.94.94,0,0,0,.94-.94V38.24a1,1,0,1,1,2,0v12.7A2.94,2.94,0,0,1,51.13,53.89Z"/><path class="cls-2" d="M52.07,16.65V14a.94.94,0,0,0-.94-.94H48.32a1,1,0,0,1,0-2h2.81A3,3,0,0,1,54.07,14V16.7a1,1,0,0,1-1.13,1A1.07,1.07,0,0,1,52.07,16.65Z"/><path class="cls-2" d="M43.58,17.1h-13a1.87,1.87,0,0,1-1.87-1.87v-5a1.87,1.87,0,0,1,1.87-1.87h3a3.73,3.73,0,0,1,3.53-2.68,3.66,3.66,0,0,1,3.53,2.68h2.94a1.86,1.86,0,0,1,1.86,1.87v5A1.73,1.73,0,0,1,43.58,17.1Zm-12.91-2h12.7V10.42h-3.6a1,1,0,0,1-1.05-1,1.67,1.67,0,1,0-3.33,0,1,1,0,0,1-1,1H30.67Z"/><path class="cls-2" d="M32.67,37.17H26V30.48h6.68Zm-4.68-2h2.68V32.49H28Z"/><path class="cls-2" d="M41.25,35.16H37a1,1,0,0,1,0-2h4.28a1,1,0,0,1,0,2Z"/><path class="cls-2" d="M32.67,47.2H26V40.51h6.68Zm-4.68-2h2.68V42.52H28Z"/><path class="cls-2" d="M32.67,27.8H26V21.12h6.68ZM28,25.8h2.68V23.12H28Z"/><path class="cls-2" d="M46.93,23.12h-10a1,1,0,0,1,0-2h10a1,1,0,0,1,1,.71A1,1,0,0,1,46.93,23.12Z"/><path class="cls-2" d="M44.33,27.14H37a1,1,0,0,1,0-2h7.42a1,1,0,0,1,1,1A1,1,0,0,1,44.33,27.14Z"/><path class="cls-2" d="M41.38,45.91a.76.76,0,0,1-.53-.2.93.93,0,0,1-.4-1.07l1.2-5.09a.55.55,0,0,1,.13-.33L54.16,21.1a1,1,0,1,1,1.67,1.13L43.46,40.29l-.54,2.34,2-1.34L58.3,21.7,56,20.16a.88.88,0,0,1-.4-.67.91.91,0,0,1,.13-.73L57,16.82a1,1,0,0,1,1.41-.27l3.07,2.14a1,1,0,1,1-1.13,1.67L58.1,18.82,58,19l2.27,1.54a.88.88,0,0,1,.4.67,1,1,0,0,1-.13.74l-14,20.53a.53.53,0,0,1-.27.26l-4.28,3A1.26,1.26,0,0,1,41.38,45.91Z"/></g></g></svg>