<?xml version="1.0" encoding="utf-8"?>
<!-- Generator: Adobe Illustrator 16.0.0, SVG Export Plug-In . SVG Version: 6.00 Build 0)  -->
<!DOCTYPE svg PUBLIC "-//W3C//DTD SVG 1.1//EN" "http://www.w3.org/Graphics/SVG/1.1/DTD/svg11.dtd">
<svg version="1.1" id="Capa_1" xmlns="http://www.w3.org/2000/svg" xmlns:xlink="http://www.w3.org/1999/xlink" x="0px" y="0px"
	 width="17.442px" height="17.438px" viewBox="0 0 17.442 17.438" enable-background="new 0 0 17.442 17.438" xml:space="preserve">
<g id="Grupo_56" transform="translate(-191.896 -53.563)">
	<g id="noun_950840_cc" transform="translate(187.041 48.707)">
		<path id="Trazado_145" fill="#016D38" d="M15.544,6.69c-2.445-2.445-6.409-2.445-8.854,0c-2.445,2.445-2.445,6.409,0,8.854
			s6.41,2.445,8.854,0c1.174-1.175,1.833-2.767,1.833-4.428C17.382,9.456,16.722,7.861,15.544,6.69z M14.179,14.18
			c-1.691,1.69-4.433,1.69-6.124,0c-1.691-1.69-1.691-4.433,0-6.123c1.69-1.691,4.432-1.691,6.124-0.001
			c0.812,0.813,1.268,1.913,1.268,3.062C15.451,12.267,14.994,13.37,14.179,14.18z M21.9,19.985l-2.458-2.458
			c-0.249-0.252-0.587-0.396-0.942-0.4l-1.469-1.469l-1.365,1.365l1.465,1.477c0.004,0.354,0.148,0.693,0.4,0.942l2.454,2.458
			c0.529,0.528,1.386,0.528,1.915,0C22.429,21.371,22.429,20.513,21.9,19.985L21.9,19.985z"/>
	</g>
</g>
</svg>
