<svg xmlns="http://www.w3.org/2000/svg" viewBox="0 0 63.98 56.7"><defs><style>.cls-1{fill:#ffdc5d;}.cls-2{fill:#2b2b2b;}</style></defs><g id="Capa_2" data-name="Capa 2"><g id="Capa_1-2" data-name="Capa 1"><circle class="cls-1" cx="23.29" cy="23.29" r="23.29"/><path class="cls-2" d="M52.81,3.9h0a1.78,1.78,0,0,0-.56.1h0L43.66,7.12A23.8,23.8,0,0,0,35.19,5.5h0A24,24,0,0,0,11.24,27.9H8a1.6,1.6,0,1,0,0,3.2h3.28A24,24,0,0,0,22.38,49.72V55.1A1.6,1.6,0,0,0,24,56.7h7a1.61,1.61,0,0,0,1.57-1.27h0l.74-3.52h3.79l.74,3.52a1.61,1.61,0,0,0,1.56,1.28h7A1.6,1.6,0,0,0,48,55.1h0V50a10.39,10.39,0,0,0,6.47-5.61c1-2.23,1.53-4.09,2.48-5.28h5.45A1.6,1.6,0,0,0,64,37.5h0V23.1a1.59,1.59,0,0,0-1.6-1.6H59.75c-.76-.52-2-2.47-3.32-4.7a13.39,13.39,0,0,0-3.93-4.75A14,14,0,0,0,54,9.84a5.75,5.75,0,0,0,.19-5,1.58,1.58,0,0,0-1.41-.89ZM51.39,7.71a4.11,4.11,0,0,1-.24.73,21.41,21.41,0,0,1-2.34,3.35,1.55,1.55,0,0,0-.35,1,1.61,1.61,0,0,0,1.33,1.58h0c1.25.2,2.56,1.83,3.86,4.06S56,23.3,58.47,24.53a1.65,1.65,0,0,0,.71.17h1.6V35.9h-4.7a1.6,1.6,0,0,0-1.12.45h0c-2.12,2.06-2.52,4.73-3.42,6.71S49.62,46.51,46,47.3a1.6,1.6,0,0,0-1.26,1.56V53.5h-4.1L40,50a1.61,1.61,0,0,0-1.57-1.27H32A1.59,1.59,0,0,0,30.42,50h0l-.74,3.53h-4.1V48.87a1.6,1.6,0,0,0-.79-1.38h0A20.79,20.79,0,0,1,14.39,29.71a1.48,1.48,0,0,0,0-.21,1.93,1.93,0,0,0,0-.24h0a20.75,20.75,0,0,1,28.72-19,1.7,1.7,0,0,0,.61.12,1.78,1.78,0,0,0,.56-.1h0Zm-16.18,9-.17,0h0l-.17,0h0a1.58,1.58,0,0,0-.44.19h0a1.55,1.55,0,0,0-.36.31h0l-.09.12h0a1.73,1.73,0,0,0-.15.27h0a1.21,1.21,0,0,1,0,.14h0a1,1,0,0,1,0,.14h0l0,.15h0c0,.05,0,.1,0,.16h0V29.5c0,.06,0,.11,0,.17h0a1.66,1.66,0,0,0,.12.45h0s0,0,0,0h0a.66.66,0,0,0,0,.11h0a1.78,1.78,0,0,0,.17.27h0l.1.12h0l7.92,7.92.11.11h0l.12.09h0a1.71,1.71,0,0,0,.27.14h0l.3.08h0a1.12,1.12,0,0,0,.27,0h.21l.16,0h0a1.5,1.5,0,0,0,.32-.1h0l.28-.16h0l.13-.1h0l.11-.11h0l.1-.12h0a1.4,1.4,0,0,0,.16-.26h0a1.42,1.42,0,0,0,.1-.29h0a.66.66,0,0,0,0-.15h0a.68.68,0,0,0,0-.15h0v-.07a1.62,1.62,0,0,0-.44-1.1h0v0h0l-7.46-7.46V18.3a1.86,1.86,0,0,0,0-.33v0a1.59,1.59,0,0,0-.26-.59h0a1.64,1.64,0,0,0-.6-.51h0l-.13-.06h0l-.14,0h0l-.14,0h-.33Z"/></g></g></svg>