<svg xmlns="http://www.w3.org/2000/svg" viewBox="0 0 62.4 56.59"><defs><style>.cls-1{fill:#ffdc5d;}.cls-2{fill:#2b2b2b;}</style></defs><g id="Capa_2" data-name="Capa 2"><g id="Capa_1-2" data-name="Capa 1"><circle class="cls-1" cx="34.12" cy="23.29" r="23.29"/><path class="cls-2" d="M45.18,22.34a2.85,2.85,0,0,0,0-4l-.13-.13a2.85,2.85,0,0,0-3.87-.12v-9a2.84,2.84,0,0,0-2.83-2.84h-.18a2.75,2.75,0,0,0-1,.17,2.84,2.84,0,0,0-2.78-2.29h-.18a2.85,2.85,0,0,0-2.71,2,2.81,2.81,0,0,0-1.05-.21h-.17a2.84,2.84,0,0,0-2.84,2.84V9a2.84,2.84,0,0,0-.88-.14h-.17a2.83,2.83,0,0,0-2.83,2.83V23.78a5.19,5.19,0,0,0,1.46,3.68l.66.7a3.31,3.31,0,0,1,.95,2.38V56.47h1.89V30.54a5.17,5.17,0,0,0-1.46-3.67l-.67-.71a3.3,3.3,0,0,1-1-2.38V11.67a1,1,0,0,1,1-.94h.17a.92.92,0,0,1,.88.63v5.93a.95.95,0,1,0,1.89,0V8.76a1,1,0,0,1,.95-1h.17a.94.94,0,0,1,.93.8v9.21a.95.95,0,1,0,1.89,0V7A.94.94,0,0,1,34.26,6h.18a.94.94,0,0,1,.94.94V8.67s0,0,0,.06v9.15a.95.95,0,1,0,1.89,0V8.79a1,1,0,0,1,.89-.66h.17a.94.94,0,0,1,.95.95V20.36a1,1,0,0,0,.58.87.94.94,0,0,0,1-.21l1.48-1.47a1,1,0,0,1,1.34,0l.12.12a1,1,0,0,1,0,1.34c-1.66,1.66-3.22,3.2-4.77,4.73l-1.58,1.57a4.57,4.57,0,0,0-1.4,3.36v25.8H38V30.67a2.72,2.72,0,0,1,.83-2l1.59-1.57C42,25.55,43.51,24,45.18,22.34Z"/><path class="cls-2" d="M19.56,26.41h-.17a2.84,2.84,0,0,0-.88.14v-.22a2.84,2.84,0,0,0-2.83-2.84H15.5a2.85,2.85,0,0,0-1.05.21,2.84,2.84,0,0,0-2.71-2h-.17A2.85,2.85,0,0,0,8.78,24a2.75,2.75,0,0,0-.95-.17H7.66a2.84,2.84,0,0,0-2.84,2.84v9A2.77,2.77,0,0,0,3,35a2.83,2.83,0,0,0-2,.83l-.12.13a2.82,2.82,0,0,0,0,4c1.66,1.67,3.22,3.21,4.77,4.74l1.59,1.57a2.69,2.69,0,0,1,.84,2v8.31H9.92V48.23a4.56,4.56,0,0,0-1.4-3.35L6.93,43.31c-1.55-1.53-3.11-3.07-4.77-4.73a1,1,0,0,1,0-1.34l.13-.12a1,1,0,0,1,1.33,0L5.1,38.59a.94.94,0,0,0,1.61-.66V26.65a1,1,0,0,1,1-.95h.17a.94.94,0,0,1,.91.71v9a.95.95,0,1,0,1.89,0V25.88s0-.07,0-.1V24.52a1,1,0,0,1,1-.94h.17a1,1,0,0,1,.95.94V35.4a.94.94,0,1,0,1.88,0V26.18a1,1,0,0,1,.93-.8h.18a1,1,0,0,1,.94.95v8.53a.95.95,0,1,0,1.89,0V28.93a.93.93,0,0,1,.88-.63h.17a.94.94,0,0,1,1,.94V41.35a3.3,3.3,0,0,1-1,2.38l-.66.71a5.17,5.17,0,0,0-1.46,3.67v8.43h1.88V48.11a3.31,3.31,0,0,1,.95-2.38l.66-.7a5.22,5.22,0,0,0,1.47-3.68V29.24A2.84,2.84,0,0,0,19.56,26.41Z"/><path class="cls-2" d="M59.56,26.91h-.17a2.89,2.89,0,0,0-.88.14v-.23A2.83,2.83,0,0,0,55.68,24H55.5a2.84,2.84,0,0,0-1,.2,2.82,2.82,0,0,0-2.71-2h-.17a2.84,2.84,0,0,0-2.79,2.29,2.75,2.75,0,0,0-1-.17h-.17a2.84,2.84,0,0,0-2.84,2.83v9a2.81,2.81,0,0,0-1.87-.7,2.85,2.85,0,0,0-2,.83l-.12.12a2.84,2.84,0,0,0,0,4c1.65,1.65,3.19,3.18,4.73,4.7l1.63,1.61a2.73,2.73,0,0,1,.84,2v7.86h1.89V48.73a4.53,4.53,0,0,0-1.4-3.35l-1.63-1.62c-1.54-1.51-3.08-3-4.73-4.69a1,1,0,0,1,0-1.33l.13-.13a1,1,0,0,1,1.33,0l1.48,1.48a.94.94,0,0,0,1.61-.67V27.14a1,1,0,0,1,.95-.94h.17a1,1,0,0,1,.9.67V34.8a.95.95,0,0,0,1.89,0V25a1,1,0,0,1,1-.95h.17a1,1,0,0,1,.95.95V35.89a.94.94,0,1,0,1.88,0V26.68a1,1,0,0,1,.93-.8h.18a.94.94,0,0,1,.94.94v8.54a.95.95,0,0,0,1.89,0V29.42a.94.94,0,0,1,.88-.63h.17a1,1,0,0,1,.95.95V41.85a3.31,3.31,0,0,1-.95,2.38l-.66.7a5.2,5.2,0,0,0-1.47,3.68v8h1.89v-8a3.3,3.3,0,0,1,1-2.38l.66-.71a5.18,5.18,0,0,0,1.47-3.67V29.74A2.84,2.84,0,0,0,59.56,26.91Z"/></g></g></svg>