<svg xmlns="http://www.w3.org/2000/svg" viewBox="0 0 67.1 56.49"><defs><style>.cls-1{fill:#ffdc5d;}.cls-2{fill:#2b2b2b;}</style></defs><g id="Capa_2" data-name="Capa 2"><g id="Capa_1-2" data-name="Capa 1"><circle class="cls-1" cx="23.29" cy="23.29" r="23.29"/><path class="cls-2" d="M65.6,20a4.26,4.26,0,0,0-7,3.25v8.46a4.12,4.12,0,0,0-.91-.2,4.23,4.23,0,0,0-3.45,1.21L43.83,43.07a7.65,7.65,0,0,0-2.24,5.46v6.56a1.4,1.4,0,1,0,2.8,0V48.54A5,5,0,0,1,45.8,45L56.18,34.66a1.45,1.45,0,0,1,2,2.05l-6,6a1.4,1.4,0,0,0,2,2l6-6a4.19,4.19,0,0,0,1.25-3.21v-.11l-.09-12.15a1.46,1.46,0,0,1,1.26-1.46A1.48,1.48,0,0,1,64.3,23a1.55,1.55,0,0,1,0,.22V39a6,6,0,0,1-1.75,4.23l-8.34,8.35a1.37,1.37,0,0,0-.41,1v2.57a1.4,1.4,0,1,0,2.8,0v-2l7.93-8A8.69,8.69,0,0,0,67.1,39V23.22A4.28,4.28,0,0,0,65.6,20Z"/><path class="cls-2" d="M22.68,53.1v2a1.4,1.4,0,1,0,2.8,0V52.52a1.39,1.39,0,0,0-.43-1l-8.34-8.35A5.9,5.9,0,0,1,15,39V23.22a1.47,1.47,0,0,1,1.47-1.47h.21a1.46,1.46,0,0,1,1.23,1.46L17.8,35.37h0A4.21,4.21,0,0,0,19,38.68l6,6a1.4,1.4,0,0,0,2-1.92l0-.06-6-6a1.45,1.45,0,0,1,2-2L33.46,45a4.93,4.93,0,0,1,1.45,3.49v6.56a1.41,1.41,0,0,0,2.81,0V48.54a7.68,7.68,0,0,0-2.25-5.47L25.05,32.69a4.25,4.25,0,0,0-3.45-1.21,4.87,4.87,0,0,0-.92.2V23.22a4.27,4.27,0,1,0-8.53,0V39a8.7,8.7,0,0,0,2.57,6.17Z"/><path class="cls-2" d="M40,18.34h0c-2.6-.6-2.6-1.69-2.6-2a2.07,2.07,0,0,1,2.29-2,2.27,2.27,0,0,1,2.11,1.4,1.4,1.4,0,1,0,2.66-.86.85.85,0,0,0-.09-.22A5.07,5.07,0,0,0,41,11.73V10.52a1.4,1.4,0,1,0-2.8,0h0v1.19a4.68,4.68,0,0,0-3.68,4.6c0,1.35.61,3.76,4.71,4.72h0c2.59.59,2.59,1.68,2.59,2a2.07,2.07,0,0,1-2.28,2,2.28,2.28,0,0,1-2.09-1.4,1.4,1.4,0,1,0-2.62,1l.05.11a5,5,0,0,0,3.29,2.92v1.22a1.4,1.4,0,0,0,2.8,0V27.66a4.7,4.7,0,0,0,3.67-4.59C44.71,21.71,44.12,19.29,40,18.34Z"/><path class="cls-2" d="M56.2,19.7A16.57,16.57,0,1,0,39.62,36.25h0A16.58,16.58,0,0,0,56.2,19.7ZM39.63,33.46A13.78,13.78,0,1,1,53.41,19.68v0A13.78,13.78,0,0,1,39.63,33.46Z"/></g></g></svg>