<svg xmlns="http://www.w3.org/2000/svg" viewBox="0 0 28.6 17.82"><defs><style>.cls-1,.cls-2{fill:#fff;}.cls-1{fill-rule:evenodd;}</style></defs><g id="Capa_2" data-name="Capa 2"><g id="Capa_1-2" data-name="Capa 1"><g id="Grupo_63" data-name="Grupo 63"><g id="Capa_2-2" data-name="Capa 2"><g id="Capa_1-3" data-name="Capa 1"><path id="Trazado_316" data-name="Trazado 316" class="cls-1" d="M26.81,7.13H8.19a3.86,3.86,0,0,1,0,3.56H26.81a1.78,1.78,0,1,0,0-3.56Z"/><path id="Trazado_317" data-name="Trazado 317" class="cls-1" d="M26.81,3.56h-25A1.78,1.78,0,0,1,0,1.8v0A1.78,1.78,0,0,1,1.77,0h25A1.78,1.78,0,0,1,28.6,1.76v0a1.77,1.77,0,0,1-1.77,1.78Z"/><path id="Trazado_318" data-name="Trazado 318" class="cls-1" d="M1.79,14.25h25a1.79,1.79,0,1,1,0,3.57h-25a1.79,1.79,0,1,1,0-3.57Z"/><path id="Trazado_319" data-name="Trazado 319" class="cls-2" d="M.9,5.9A.84.84,0,0,1,1.36,6L5,8.12A.9.9,0,0,1,5,9.69L1.36,11.78a.84.84,0,0,1-.46.13A.9.9,0,0,1,0,11H0V6.81A.9.9,0,0,1,.89,5.9h0"/></g></g></g></g></g></svg>