<svg xmlns="http://www.w3.org/2000/svg" viewBox="0 0 18.84 18.84"><defs><style>.cls-1{fill:#ffdc5d;}</style></defs><g id="Capa_2" data-name="Capa 2"><g id="Capa_1-2" data-name="Capa 1"><g id="login"><g id="Grupo_52" data-name="Grupo 52"><g id="Grupo_51" data-name="Grupo 51"><path id="Trazado_304" data-name="Trazado 304" class="cls-1" d="M4.84,17.36H2.24a.74.74,0,0,1-.59-.28.78.78,0,0,1-.16-.64A8.13,8.13,0,0,1,9.23,10h.38a8,8,0,0,1,2.65.51.73.73,0,0,0,.93-.47.74.74,0,0,0-.41-.91L12.41,9a5,5,0,1,0-7-1,4.84,4.84,0,0,0,1,1A9.58,9.58,0,0,0,.05,16.14a2.23,2.23,0,0,0,1.72,2.65,2.4,2.4,0,0,0,.46.05h2.6a.75.75,0,0,0,.77-.71.74.74,0,0,0-.71-.76h0ZM5.89,5a3.53,3.53,0,1,1,3.7,3.53H9.24A3.53,3.53,0,0,1,5.89,5Z"/><path id="Trazado_305" data-name="Trazado 305" class="cls-1" d="M18.27,12.67a2,2,0,0,0-1.81-1.16h-2.3a2,2,0,0,0-1.84,1.25c0,.1-.08.22-.13.37H7.37a.75.75,0,0,0-.53.22l-1.26,1.3a.74.74,0,0,0,0,1L6.87,17a.73.73,0,0,0,.52.22H9.78a.74.74,0,0,0,.77-.71.75.75,0,0,0-.71-.76H7.7l-.57-.58.55-.56h5.06a.73.73,0,0,0,.71-.56c.07-.26.15-.51.24-.76a.49.49,0,0,1,.47-.3h2.3a.51.51,0,0,1,.47.29,4.88,4.88,0,0,1,.44,1.88,5,5,0,0,1-.44,1.91.51.51,0,0,1-.46.3H14.15a.53.53,0,0,1-.48-.33,4.4,4.4,0,0,1-.22-.73.75.75,0,0,0-.87-.57.74.74,0,0,0-.58.87l0,0a5.14,5.14,0,0,0,.3.94,2,2,0,0,0,1.83,1.24h2.32a2,2,0,0,0,1.81-1.19,6.47,6.47,0,0,0,.56-2.5A6.24,6.24,0,0,0,18.27,12.67Z"/><ellipse id="Elipse_19" data-name="Elipse 19" class="cls-1" cx="16.05" cy="15.09" rx="0.64" ry="0.96"/></g></g></g></g></g></svg>