<svg xmlns="http://www.w3.org/2000/svg" viewBox="0 0 17.44 17.44"><defs><style>.cls-1{fill:#ffdc5d;}</style></defs><g id="Capa_2" data-name="Capa 2"><g id="Capa_1-2" data-name="Capa 1"><g id="noun_950840_cc" data-name="noun 950840 cc"><path id="Trazado_145" data-name="Trazado 145" class="cls-1" d="M10.69,1.83a6.28,6.28,0,1,0,1.83,4.43A6.21,6.21,0,0,0,10.69,1.83ZM9.32,9.32a4.32,4.32,0,1,1,1.27-3.06A4.33,4.33,0,0,1,9.32,9.32ZM17,15.13l-2.45-2.46a1.35,1.35,0,0,0-.95-.4L12.18,10.8l-1.37,1.37,1.47,1.47a1.31,1.31,0,0,0,.4.95L15.13,17A1.35,1.35,0,1,0,17,15.13Z"/></g></g></g></svg>